<?xml version="1.0"?>
<svg xmlns="http://www.w3.org/2000/svg" xmlns:xlink="http://www.w3.org/1999/xlink" xmlns:svgjs="http://svgjs.com/svgjs" version="1.1" width="512" height="512" x="0" y="0" viewBox="0 0 64 64" style="enable-background:new 0 0 512 512" xml:space="preserve" class=""><g><g xmlns="http://www.w3.org/2000/svg" id="Search_Cloud" data-name="Search Cloud"><circle cx="27" cy="31.938" r="1" fill="#f1f2f4" data-original="#000000" class=""/><circle cx="32" cy="31.938" r="1" fill="#f1f2f4" data-original="#000000" class=""/><circle cx="37" cy="31.938" r="1" fill="#f1f2f4" data-original="#000000" class=""/><path d="m47.33594 42.44021a1.32308 1.32308 0 0 0 -1.8252.00147l-.70819.70794-2.21155-2.21136h5.409a12.00144 12.00144 0 0 0 1.48438-23.91064 12.76053 12.76053 0 0 0 -2.627-.042 16.00746 16.00746 0 0 0 -30.76367 4.1709 9.92229 9.92229 0 0 0 -8.41992 2.03906c-7.27779 5.93533-3.04298 17.74268 6.6348 17.74268h9.78058a11.9152 11.9152 0 0 0 15.73755.064l3.56159 3.56122-.76233.762a1.29555 1.29555 0 0 0 .002 1.8247l9.02344 9.02344a3.04442 3.04442 0 0 0 4.2998-.00146l.40918-.41016a3.03666 3.03666 0 0 0 -.001-4.29736zm-33.02735-3.502c-7.80944 0-11.1943-9.44425-5.3711-14.19287a7.94722 7.94722 0 0 1 6.73243-1.63477 1.9886 1.9886 0 0 0 2.41309-1.708 14.0042 14.0042 0 0 1 26.91699-3.67329 1.98 1.98 0 0 0 2.05957 1.25244 10.30419 10.30419 0 0 1 2.18652.03125 10.00164 10.00164 0 0 1 -1.24609 19.92529h-6.27313a12 12 0 1 0 -19.45374 0zm17.69141 3a10 10 0 1 1 10-10 10.01146 10.01146 0 0 1 -10 10.00005zm22.94531 12.41021-.40918.41015a1.0406 1.0406 0 0 1 -1.4707.00049l-8.52246-8.522 1.88086-1.88037 8.52148 8.52246a1.03655 1.03655 0 0 1 0 1.46927z" fill="#f1f2f4" data-original="#000000" class=""/></g></g></svg>
